<svg version="1.1" id="Layer_1" xmlns="http://www.w3.org/2000/svg" xmlns:xlink="http://www.w3.org/1999/xlink" x="0px" y="0px"
	 width="100%" viewBox="0 0 576 1024" enable-background="new 0 0 576 1024" xml:space="preserve">
<path fill="#000000" opacity="1.000000" stroke="none" 
	d="
M380.317932,481.679993 
	C374.899200,466.467346 368.440552,452.078003 363.609528,437.047943 
	C360.407532,427.086029 356.180603,417.453583 352.210907,407.150482 
	C347.173615,410.560883 344.572815,414.835938 341.707733,418.822083 
	C333.949768,429.615784 333.228790,428.678864 324.838593,421.028931 
	C311.417786,408.792328 295.129333,401.304260 277.593048,397.669830 
	C261.665771,394.368896 245.427231,394.037292 229.038284,396.660675 
	C204.195923,400.637177 184.138687,412.612152 167.840179,431.090210 
	C157.069534,443.301208 149.714722,457.663971 144.804688,473.259430 
	C141.785278,482.849823 140.169815,492.586395 140.238663,502.646484 
	C140.328552,515.781006 139.353256,529.024597 142.533539,541.907532 
	C145.642303,554.500793 149.911270,566.682251 156.450211,578.069397 
	C170.969391,603.353638 192.444397,619.047668 220.289688,627.168152 
	C237.316193,632.133606 254.690414,632.411194 271.624329,630.344727 
	C298.755157,627.033875 321.824554,613.982300 341.039642,594.412292 
	C341.623413,593.817688 342.180756,593.195801 342.782928,592.620728 
	C346.853760,588.732666 348.115723,588.896973 350.124420,594.022217 
	C355.631836,608.074463 360.952057,622.200378 366.502441,636.235352 
	C367.708008,639.283691 366.096130,641.006897 364.318726,642.763916 
	C354.905151,652.070129 344.178711,659.668335 332.712036,666.158020 
	C316.106445,675.556213 298.211426,681.805298 279.397339,684.439026 
	C262.809845,686.761108 246.163422,687.898743 229.179779,685.690247 
	C217.961884,684.231628 206.658066,682.884949 195.958389,679.788208 
	C180.888474,675.426575 166.430511,669.301575 152.914642,660.691956 
	C121.397247,640.615479 100.736641,612.227844 87.819679,577.918701 
	C83.956352,567.657166 81.934494,556.628540 80.052254,545.631836 
	C77.064445,528.176147 77.217567,510.770935 78.789276,493.372131 
	C79.871635,481.390381 82.949799,469.690796 86.239487,458.020996 
	C93.377533,432.699524 107.051987,411.259521 124.981354,392.722839 
	C139.846954,377.353729 157.463196,365.003296 177.478287,357.062073 
	C192.057953,351.277405 207.117691,346.741364 223.020798,345.375092 
	C234.791977,344.363800 246.511749,341.988037 258.323975,343.766113 
	C269.936951,345.514221 281.612885,346.196777 293.194183,349.106445 
	C309.940643,353.313782 325.770935,359.117767 340.700012,367.612915 
	C344.100677,369.547943 346.621307,369.322266 349.032928,365.760529 
	C351.916229,361.502106 355.637573,357.815002 358.573090,353.586884 
	C360.942688,350.173920 364.128845,348.867096 367.911377,348.799805 
	C374.406647,348.684204 380.907257,348.832550 387.405090,348.914398 
	C390.484375,348.953156 392.026672,350.717468 393.153351,353.518372 
	C399.827515,370.110229 405.265381,387.171875 411.838776,403.772644 
	C419.107269,422.128784 425.690247,440.734192 432.935730,459.092102 
	C437.129730,469.718628 441.123291,480.432465 444.862183,491.226501 
	C446.430420,495.753998 448.541138,498.050537 453.777527,497.795013 
	C465.917725,497.202545 478.098328,498.110596 490.248230,497.177094 
	C492.396729,497.011993 494.596771,497.027893 496.182617,498.979797 
	C496.385834,501.123444 494.726257,502.241119 493.706879,503.684357 
	C485.160889,515.783569 476.608826,527.878418 468.061066,539.976379 
	C466.634064,541.996094 466.321716,543.938049 467.250549,546.476562 
	C473.278931,562.952026 479.393921,579.407043 485.180939,595.957031 
	C492.294708,616.301514 501.163544,635.983398 507.496277,656.612793 
	C509.485748,663.093628 512.515198,669.247803 514.824768,675.639648 
	C517.312134,682.523621 516.206543,684.067139 509.032532,684.098145 
	C492.700073,684.168762 476.366333,684.070801 460.035370,684.250305 
	C455.613831,684.298828 452.970581,682.286621 451.890839,678.380554 
	C447.370453,662.028259 439.717682,646.812378 434.620422,630.700317 
	C428.515564,611.403320 420.095520,592.982910 413.785034,573.775208 
	C411.315338,566.258057 408.405792,558.886169 405.759827,551.425659 
	C404.789795,548.690613 403.090424,547.670837 400.107056,547.686096 
	C365.279053,547.864563 330.450439,547.937134 295.621918,547.999084 
	C276.789429,548.032593 257.956787,547.991699 239.124222,547.984680 
	C237.957581,547.984192 236.790344,548.011047 235.624374,547.983582 
	C225.917938,547.755249 225.622208,547.640320 222.436142,538.562866 
	C219.466858,530.103088 215.429672,522.112183 211.965851,513.871399 
	C210.430267,510.218109 209.087997,506.482056 207.713654,502.762970 
	C206.512924,499.513824 207.298203,497.613159 211.163620,497.701416 
	C214.494522,497.777466 217.829483,497.653503 221.162659,497.654175 
	C272.995422,497.664490 324.828156,497.681000 376.660919,497.693695 
	C377.993927,497.694031 379.328979,497.708771 380.659546,497.644287 
	C384.237610,497.470825 385.410187,495.913452 383.932709,492.407562 
	C382.519623,489.054535 380.901855,485.739929 380.317932,481.679993 
z"/>
</svg>